<?xml version="1.0" encoding="UTF-8" ?>
<!DOCTYPE svg PUBLIC "-//W3C//DTD SVG 1.1//EN" "http://www.w3.org/Graphics/SVG/1.1/DTD/svg11.dtd">
<svg width="183pt" height="275pt" viewBox="0 0 183 275" version="1.1" xmlns="http://www.w3.org/2000/svg">
<g id="#ffffffff">
</g>
<g id="#160e11ff">
<path fill="#160e11" opacity="1.00" d=" M 79.85 21.85 C 82.25 21.22 84.79 21.17 87.07 20.07 C 89.65 21.26 92.33 20.23 94.93 19.72 C 99.79 20.64 104.17 23.11 108.68 25.06 C 108.20 26.05 107.74 27.05 107.28 28.06 C 107.87 27.22 108.47 26.38 109.06 25.54 C 111.70 29.22 112.57 34.25 116.37 36.97 C 115.26 37.21 114.15 37.45 113.06 37.75 C 108.72 40.33 109.25 45.39 110.29 49.59 C 109.61 50.02 108.93 50.44 108.25 50.87 C 108.86 52.67 109.48 54.46 109.92 56.31 C 109.75 56.74 109.41 57.59 109.24 58.02 C 107.64 58.78 106.01 59.49 104.34 60.09 C 103.70 60.11 102.43 60.16 101.80 60.19 C 103.02 60.97 104.21 61.83 105.14 62.96 C 104.21 63.35 103.31 63.78 102.43 64.25 C 102.01 63.93 101.18 63.28 100.76 62.95 C 100.17 61.35 100.48 59.74 101.61 58.46 C 101.11 57.76 100.60 57.05 100.09 56.35 C 100.79 55.36 101.48 54.37 102.14 53.35 C 102.99 50.34 102.89 47.14 102.16 44.12 C 101.60 41.74 100.99 39.36 100.30 37.02 C 99.27 33.16 97.21 28.93 92.96 27.94 C 88.82 26.93 82.93 25.91 80.15 30.04 C 77.96 36.29 78.52 43.07 77.92 49.58 C 78.14 49.99 78.58 50.80 78.80 51.21 C 79.59 52.72 80.30 54.28 81.00 55.84 C 79.54 56.92 78.15 58.10 76.76 59.26 C 76.81 57.82 76.88 56.39 76.95 54.95 C 75.58 55.40 74.21 55.85 72.84 56.29 C 73.16 54.86 73.50 53.42 73.81 51.99 C 72.97 52.95 72.13 53.92 71.29 54.89 C 70.71 55.57 70.13 56.26 69.56 56.95 C 69.80 53.99 69.11 51.16 67.58 48.63 C 67.49 46.35 68.99 43.95 67.57 41.77 C 67.42 43.32 67.32 44.88 67.25 46.44 C 66.76 46.36 65.78 46.21 65.28 46.13 L 65.57 45.28 C 66.43 42.62 67.41 40.00 68.27 37.33 C 67.36 37.30 66.45 37.27 65.54 37.24 C 66.49 36.26 67.40 35.26 68.29 34.24 C 68.88 35.14 69.49 36.03 70.12 36.91 C 69.56 35.58 68.90 34.30 68.25 33.03 C 68.85 32.45 70.06 31.30 70.67 30.73 C 70.37 30.43 69.77 29.83 69.48 29.53 C 73.84 28.16 75.84 23.70 79.85 21.85 M 72.23 30.23 C 72.78 30.78 72.78 30.78 72.23 30.23 M 70.02 46.46 C 69.10 47.65 69.33 48.34 70.71 48.52 C 71.63 47.32 71.39 46.64 70.02 46.46 Z" />
</g>
<g id="#8b5f4cff">
<path fill="#8b5f4c" opacity="1.00" d=" M 80.15 30.04 C 82.93 25.91 88.82 26.93 92.96 27.94 C 97.21 28.93 99.27 33.16 100.30 37.02 C 99.22 37.21 98.14 37.41 97.07 37.62 C 96.50 34.75 96.92 30.60 93.55 29.37 C 90.37 28.25 86.36 27.39 83.34 29.33 C 81.33 31.81 81.49 35.30 80.86 38.30 C 83.00 38.22 85.42 37.28 87.39 38.50 C 88.31 39.67 88.59 41.19 89.00 42.59 C 88.62 42.83 87.85 43.31 87.47 43.55 C 87.58 42.87 87.79 41.51 87.89 40.83 C 86.36 40.93 84.82 41.03 83.29 41.13 C 82.91 41.60 82.15 42.53 81.77 43.00 C 80.87 42.82 79.97 42.63 79.08 42.43 C 79.21 43.53 79.35 44.62 79.48 45.72 C 79.30 47.55 79.05 49.38 78.80 51.21 C 78.58 50.80 78.14 49.99 77.92 49.58 C 78.52 43.07 77.96 36.29 80.15 30.04 Z" />
</g>
<g id="#d39d87ff">
<path fill="#d39d87" opacity="1.00" d=" M 83.34 29.33 C 86.36 27.39 90.37 28.25 93.55 29.37 C 96.92 30.60 96.50 34.75 97.07 37.62 C 94.60 37.89 92.60 39.34 90.96 41.12 C 91.18 43.46 91.87 45.74 93.10 47.76 L 92.21 47.79 C 88.09 47.07 83.93 47.66 80.37 49.92 C 80.06 48.52 79.74 47.12 79.48 45.72 C 79.35 44.62 79.21 43.53 79.08 42.43 C 79.97 42.63 80.87 42.82 81.77 43.00 C 83.65 43.33 85.56 43.53 87.47 43.55 C 87.85 43.31 88.62 42.83 89.00 42.59 C 88.59 41.19 88.31 39.67 87.39 38.50 C 85.42 37.28 83.00 38.22 80.86 38.30 C 81.49 35.30 81.33 31.81 83.34 29.33 Z" />
</g>
<g id="#888888ff">
<path fill="#888888" opacity="1.00" d=" M 72.23 30.23 C 72.78 30.78 72.78 30.78 72.23 30.23 Z" />
</g>
<g id="#b2b0b1ff">
</g>
<g id="#704135ff">
<path fill="#704135" opacity="1.00" d=" M 100.30 37.02 C 100.99 39.36 101.60 41.74 102.16 44.12 L 101.54 43.57 C 97.91 43.23 93.68 44.26 90.96 41.12 C 92.60 39.34 94.60 37.89 97.07 37.62 C 98.14 37.41 99.22 37.21 100.30 37.02 Z" />
</g>
<g id="#8f8689ff">
</g>
<g id="#2c1f22ff">
<path fill="#2c1f22" opacity="1.00" d=" M 110.29 49.59 C 109.25 45.39 108.72 40.33 113.06 37.75 C 116.20 40.64 116.45 45.06 116.25 49.04 C 114.89 48.32 113.54 47.59 112.19 46.86 C 112.65 47.61 113.12 48.36 113.59 49.11 C 113.14 50.64 112.69 52.18 112.33 53.74 C 112.42 54.14 112.61 54.94 112.70 55.35 L 113.15 55.99 C 112.44 57.73 111.14 57.01 109.92 56.31 C 109.48 54.46 108.86 52.67 108.25 50.87 C 108.93 50.44 109.61 50.02 110.29 49.59 Z" />
</g>
<g id="#62311eff">
<path fill="#62311e" opacity="1.00" d=" M 83.29 41.13 C 84.82 41.03 86.36 40.93 87.89 40.83 C 87.79 41.51 87.58 42.87 87.47 43.55 C 85.56 43.53 83.65 43.33 81.77 43.00 C 82.15 42.53 82.91 41.60 83.29 41.13 Z" />
</g>
<g id="#c88e7fff">
<path fill="#c88e7f" opacity="1.00" d=" M 93.10 47.76 C 91.87 45.74 91.18 43.46 90.96 41.12 C 93.68 44.26 97.91 43.23 101.54 43.57 C 101.06 46.37 100.53 49.17 99.94 51.95 C 100.49 52.30 101.59 53.00 102.14 53.35 C 101.48 54.37 100.79 55.36 100.09 56.35 C 97.35 57.77 94.86 59.78 91.86 60.62 C 88.48 60.72 85.52 58.69 82.74 57.00 C 82.30 56.71 81.43 56.13 81.00 55.84 C 80.30 54.28 79.59 52.72 78.80 51.21 C 79.05 49.38 79.30 47.55 79.48 45.72 C 79.74 47.12 80.06 48.52 80.37 49.92 C 83.93 47.66 88.09 47.07 92.21 47.79 C 91.40 50.01 94.91 49.54 93.10 47.76 M 95.03 51.31 C 90.95 51.59 86.81 51.49 82.83 50.47 C 83.56 51.29 84.05 52.43 85.12 52.86 C 87.41 52.62 89.63 51.59 91.95 51.84 C 93.74 52.29 95.45 53.02 97.16 53.68 C 97.44 52.24 97.72 50.80 98.03 49.36 C 97.06 50.03 96.34 51.32 95.03 51.31 Z" />
</g>
<g id="#93665dff">
<path fill="#93665d" opacity="1.00" d=" M 101.54 43.57 L 102.16 44.12 C 102.89 47.14 102.99 50.34 102.14 53.35 C 101.59 53.00 100.49 52.30 99.94 51.95 C 100.53 49.17 101.06 46.37 101.54 43.57 Z" />
</g>
<g id="#8a8383ff">
</g>
<g id="#64311aff">
<path fill="#64311a" opacity="1.00" d=" M 92.21 47.79 L 93.10 47.76 C 94.91 49.54 91.40 50.01 92.21 47.79 Z" />
</g>
<g id="#700313ff">
<path fill="#700313" opacity="1.00" d=" M 95.03 51.31 C 96.34 51.32 97.06 50.03 98.03 49.36 C 97.72 50.80 97.44 52.24 97.16 53.68 C 95.45 53.02 93.74 52.29 91.95 51.84 C 89.63 51.59 87.41 52.62 85.12 52.86 C 84.05 52.43 83.56 51.29 82.83 50.47 C 86.81 51.49 90.95 51.59 95.03 51.31 Z" />
<path fill="#700313" opacity="1.00" d=" M 75.19 72.28 C 77.81 72.40 80.44 72.43 83.07 72.51 C 80.58 73.33 77.97 73.54 75.38 73.70 C 75.33 73.35 75.24 72.64 75.19 72.28 Z" />
<path fill="#700313" opacity="1.00" d=" M 107.79 165.02 C 108.36 163.24 108.95 161.48 109.58 159.73 C 109.57 161.79 109.54 163.86 109.47 165.93 C 109.02 167.24 108.51 168.52 108.04 169.82 C 107.64 169.64 106.83 169.27 106.43 169.09 C 106.89 167.73 107.35 166.38 107.79 165.02 Z" />
<path fill="#700313" opacity="1.00" d=" M 88.12 240.39 C 89.49 240.54 90.86 240.67 92.24 240.78 C 94.14 240.66 96.02 240.31 97.89 239.99 C 94.25 244.73 90.66 249.83 85.22 252.68 C 85.92 250.79 86.66 248.91 87.40 247.04 C 86.98 246.94 86.14 246.76 85.73 246.66 C 86.58 244.62 88.98 242.79 88.12 240.39 Z" />
</g>
<g id="#bea8a8ff">
</g>
<g id="#eae0e2ff">
<path fill="#eae0e2" opacity="1.00" d=" M 112.33 53.74 C 113.89 53.82 114.01 54.35 112.70 55.35 C 112.61 54.94 112.42 54.14 112.33 53.74 Z" />
</g>
<g id="#421f1aff">
<path fill="#421f1a" opacity="1.00" d=" M 81.00 55.84 C 81.43 56.13 82.30 56.71 82.74 57.00 C 82.87 57.52 83.13 58.56 83.26 59.08 C 83.15 59.57 82.94 60.55 82.83 61.05 C 81.34 59.75 80.75 57.77 81.00 55.84 Z" />
</g>
<g id="#794735ff">
<path fill="#794735" opacity="1.00" d=" M 91.86 60.62 C 94.86 59.78 97.35 57.77 100.09 56.35 C 100.60 57.05 101.11 57.76 101.61 58.46 C 100.48 59.74 100.17 61.35 100.76 62.95 C 97.77 61.92 95.03 64.28 92.07 64.23 C 88.81 63.16 86.06 61.00 83.26 59.08 C 83.13 58.56 82.87 57.52 82.74 57.00 C 85.52 58.69 88.48 60.72 91.86 60.62 Z" />
</g>
<g id="#5f5051ff">
<path fill="#5f5051" opacity="1.00" d=" M 104.34 60.09 C 106.01 59.49 107.64 58.78 109.24 58.02 L 110.38 57.50 C 112.20 61.34 106.47 62.19 104.34 60.09 Z" />
</g>
<g id="#aa755fff">
<path fill="#aa755f" opacity="1.00" d=" M 83.26 59.08 C 86.06 61.00 88.81 63.16 92.07 64.23 C 95.03 64.28 97.77 61.92 100.76 62.95 C 101.18 63.28 102.01 63.93 102.43 64.25 C 100.72 65.37 99.19 67.10 97.01 67.15 C 91.79 67.91 87.30 64.58 83.37 61.63 L 82.83 61.05 C 82.94 60.55 83.15 59.57 83.26 59.08 Z" />
</g>
<g id="#d59e88ff">
<path fill="#d59e88" opacity="1.00" d=" M 83.37 61.63 C 87.30 64.58 91.79 67.91 97.01 67.15 C 99.19 67.10 100.72 65.37 102.43 64.25 C 103.31 63.78 104.21 63.35 105.14 62.96 C 105.40 63.12 105.93 63.44 106.19 63.60 C 101.47 66.52 97.27 70.27 94.34 75.02 C 93.64 74.28 92.94 73.53 92.24 72.79 C 86.67 72.80 82.84 68.50 79.53 64.58 C 80.88 63.69 82.12 62.66 83.37 61.63 Z" />
</g>
<g id="#d98c9dff">
<path fill="#d98c9d" opacity="1.00" d=" M 106.19 63.60 C 108.93 69.75 116.53 70.01 121.34 73.66 C 124.86 79.85 125.53 87.24 127.17 94.08 C 123.19 95.49 118.93 95.65 114.88 96.75 C 119.39 96.90 123.77 95.43 128.28 95.72 C 128.04 98.51 125.02 99.15 122.74 99.38 C 119.28 99.67 115.61 99.98 112.42 98.30 L 112.37 97.39 C 112.71 96.90 113.39 95.91 113.73 95.41 C 113.52 94.42 113.30 93.44 113.09 92.45 C 114.02 92.52 114.95 92.60 115.88 92.68 C 114.50 90.37 113.41 87.86 113.37 85.13 C 114.90 86.42 116.42 87.74 117.92 89.08 C 116.30 85.18 114.65 81.30 112.92 77.45 C 112.16 77.52 111.40 77.59 110.65 77.66 C 110.29 75.43 109.87 73.21 109.41 71.00 C 109.06 71.21 108.36 71.65 108.01 71.87 C 106.67 72.11 105.63 72.77 104.89 73.86 C 102.63 73.52 100.35 73.44 98.08 73.34 C 97.97 74.40 97.87 75.47 97.76 76.53 C 96.67 76.48 95.57 76.43 94.47 76.38 C 94.15 76.86 93.49 77.84 93.16 78.33 C 91.20 78.27 89.16 78.14 87.27 78.77 C 85.49 80.83 84.79 83.58 84.33 86.21 C 82.92 95.31 84.74 104.51 83.68 113.64 C 83.71 121.00 81.66 128.17 81.64 135.53 C 81.57 140.14 81.00 144.73 80.60 149.32 C 78.90 144.71 77.43 139.99 75.04 135.67 C 74.69 137.60 74.36 139.53 74.05 141.47 C 74.76 141.68 76.18 142.10 76.89 142.31 C 76.16 142.71 75.43 143.11 74.70 143.51 C 74.27 146.11 73.75 148.69 73.32 151.29 C 73.15 149.35 72.92 147.42 72.69 145.49 C 72.36 145.46 71.70 145.41 71.36 145.38 C 74.15 138.16 70.77 130.62 69.77 123.38 C 71.10 120.03 72.54 116.62 72.73 112.97 C 72.80 109.49 71.25 106.27 70.42 102.96 C 72.38 95.02 70.33 86.99 70.37 78.99 C 68.83 80.61 67.09 82.13 66.07 84.16 C 65.01 86.08 66.55 88.01 67.02 89.85 C 67.78 91.49 67.30 93.31 67.18 95.03 C 64.89 94.67 62.52 94.48 60.36 93.56 C 58.72 92.35 57.85 90.40 56.70 88.77 C 58.35 83.66 59.08 78.24 61.31 73.34 C 61.96 71.53 63.99 71.13 65.56 70.46 C 69.40 69.07 73.07 67.26 76.85 65.74 C 77.75 65.37 78.64 64.98 79.53 64.58 C 82.84 68.50 86.67 72.80 92.24 72.79 C 92.94 73.53 93.64 74.28 94.34 75.02 C 97.27 70.27 101.47 66.52 106.19 63.60 M 75.19 72.28 C 75.24 72.64 75.33 73.35 75.38 73.70 C 77.97 73.54 80.58 73.33 83.07 72.51 C 80.44 72.43 77.81 72.40 75.19 72.28 Z" />
</g>
<g id="#d18092ff">
<path fill="#d18092" opacity="1.00" d=" M 108.01 71.87 C 108.36 71.65 109.06 71.21 109.41 71.00 C 109.87 73.21 110.29 75.43 110.65 77.66 C 111.40 77.59 112.16 77.52 112.92 77.45 C 114.65 81.30 116.30 85.18 117.92 89.08 C 116.42 87.74 114.90 86.42 113.37 85.13 C 113.41 87.86 114.50 90.37 115.88 92.68 C 114.95 92.60 114.02 92.52 113.09 92.45 C 113.30 93.44 113.52 94.42 113.73 95.41 C 113.39 95.91 112.71 96.90 112.37 97.39 C 112.23 95.09 112.02 92.80 111.78 90.52 C 110.13 95.55 110.51 100.96 111.96 105.99 C 109.79 109.70 109.59 114.28 111.97 117.95 L 111.84 118.46 C 109.99 124.44 112.43 130.65 111.69 136.77 C 109.50 140.60 108.37 144.90 107.71 149.24 C 107.72 146.33 107.36 143.41 106.46 140.64 C 105.91 144.60 105.77 148.60 105.64 152.60 C 104.21 152.38 102.78 152.17 101.36 151.96 C 102.55 149.04 103.73 145.97 103.24 142.76 C 100.91 144.81 99.12 147.56 99.87 150.81 L 98.71 150.90 C 98.81 144.49 98.51 138.08 98.60 131.67 C 99.05 126.25 101.14 121.10 101.31 115.63 C 100.26 115.50 99.21 115.36 98.16 115.23 C 98.29 110.05 98.68 104.87 99.50 99.76 C 101.95 104.28 100.15 109.39 100.21 114.21 C 102.73 109.88 102.05 104.67 103.31 99.96 C 103.73 101.36 104.15 102.76 104.57 104.16 C 106.27 99.22 107.15 94.08 108.21 88.98 C 108.69 88.99 109.63 88.99 110.10 88.99 C 112.19 89.37 112.38 86.87 111.94 85.44 C 111.51 85.58 110.66 85.87 110.23 86.01 C 108.06 86.48 106.03 85.58 104.23 84.43 C 104.68 82.80 105.44 81.19 105.38 79.46 C 104.83 77.88 103.95 76.44 103.15 74.97 C 102.09 75.37 101.04 75.76 99.99 76.15 C 100.94 76.73 101.89 77.32 102.83 77.91 C 99.65 78.55 96.39 78.63 93.16 78.33 C 93.49 77.84 94.15 76.86 94.47 76.38 C 95.57 76.43 96.67 76.48 97.76 76.53 C 97.87 75.47 97.97 74.40 98.08 73.34 C 100.35 73.44 102.63 73.52 104.89 73.86 C 106.46 74.85 108.10 73.62 108.01 71.87 Z" />
</g>
<g id="#65182eff">
<path fill="#65182e" opacity="1.00" d=" M 104.89 73.86 C 105.63 72.77 106.67 72.11 108.01 71.87 C 108.10 73.62 106.46 74.85 104.89 73.86 Z" />
</g>
<g id="#df8fa0ff">
<path fill="#df8fa0" opacity="1.00" d=" M 99.99 76.15 C 101.04 75.76 102.09 75.37 103.15 74.97 C 103.95 76.44 104.83 77.88 105.38 79.46 C 105.44 81.19 104.68 82.80 104.23 84.43 C 106.03 85.58 108.06 86.48 110.23 86.01 C 110.20 86.76 110.13 88.25 110.10 88.99 C 109.63 88.99 108.69 88.99 108.21 88.98 C 106.00 88.92 103.80 88.73 101.60 88.52 C 100.63 92.70 100.13 97.60 96.09 100.06 C 97.24 96.19 98.41 92.30 99.13 88.32 C 98.39 88.32 96.93 88.33 96.20 88.34 C 96.11 89.65 96.02 90.97 95.93 92.29 C 94.51 91.94 93.08 91.62 91.65 91.31 C 92.43 93.46 93.43 95.52 94.65 97.45 C 94.37 97.51 93.80 97.63 93.52 97.68 C 92.43 104.13 92.69 110.73 91.35 117.14 C 90.38 122.98 90.20 128.93 88.99 134.74 C 90.28 134.65 91.57 134.56 92.87 134.47 C 91.20 138.18 91.25 142.29 90.74 146.25 C 90.14 143.09 89.55 139.92 88.58 136.85 C 85.92 149.67 86.15 162.80 85.07 175.78 C 85.47 175.75 86.25 175.70 86.64 175.68 C 87.02 173.42 87.17 171.13 87.41 168.86 C 90.37 178.36 87.15 188.17 86.65 197.77 C 85.89 198.00 84.37 198.46 83.61 198.70 C 82.85 197.49 82.15 196.26 81.54 194.98 C 81.58 187.03 82.27 179.08 81.53 171.14 C 80.81 163.89 80.75 156.60 80.60 149.32 C 81.00 144.73 81.57 140.14 81.64 135.53 C 81.66 128.17 83.71 121.00 83.68 113.64 C 84.74 104.51 82.92 95.31 84.33 86.21 C 84.79 83.58 85.49 80.83 87.27 78.77 C 89.16 78.14 91.20 78.27 93.16 78.33 C 96.39 78.63 99.65 78.55 102.83 77.91 C 101.89 77.32 100.94 76.73 99.99 76.15 Z" />
</g>
<g id="#bf6e7dff">
<path fill="#bf6e7d" opacity="1.00" d=" M 66.07 84.16 C 67.09 82.13 68.83 80.61 70.37 78.99 C 70.33 86.99 72.38 95.02 70.42 102.96 C 69.55 107.35 68.96 111.80 68.91 116.29 C 68.70 115.84 68.28 114.96 68.08 114.52 C 66.10 109.46 66.98 103.95 67.56 98.72 C 64.85 99.35 62.23 100.33 59.86 101.78 C 59.91 100.50 59.96 99.21 60.01 97.93 C 63.43 97.35 66.75 96.34 70.08 95.41 C 69.35 95.31 67.91 95.13 67.18 95.03 C 67.30 93.31 67.78 91.49 67.02 89.85 C 66.55 88.01 65.01 86.08 66.07 84.16 Z" />
</g>
<g id="#994f60ff">
<path fill="#994f60" opacity="1.00" d=" M 110.23 86.01 C 110.66 85.87 111.51 85.58 111.94 85.44 C 112.38 86.87 112.19 89.37 110.10 88.99 C 110.13 88.25 110.20 86.76 110.23 86.01 Z" />
</g>
<g id="#d98597ff">
<path fill="#d98597" opacity="1.00" d=" M 96.20 88.34 C 96.93 88.33 98.39 88.32 99.13 88.32 C 98.41 92.30 97.24 96.19 96.09 100.06 C 100.13 97.60 100.63 92.70 101.60 88.52 C 103.80 88.73 106.00 88.92 108.21 88.98 C 107.15 94.08 106.27 99.22 104.57 104.16 C 104.15 102.76 103.73 101.36 103.31 99.96 C 102.05 104.67 102.73 109.88 100.21 114.21 C 100.15 109.39 101.95 104.28 99.50 99.76 C 98.68 104.87 98.29 110.05 98.16 115.23 C 99.21 115.36 100.26 115.50 101.31 115.63 C 101.14 121.10 99.05 126.25 98.60 131.67 C 98.51 138.08 98.81 144.49 98.71 150.90 C 98.74 165.50 98.20 180.13 99.11 194.72 C 98.98 196.04 98.83 197.36 98.66 198.68 C 96.74 198.74 94.81 198.83 92.88 198.84 L 91.94 198.81 C 89.16 198.74 86.39 198.79 83.61 198.70 C 84.37 198.46 85.89 198.00 86.65 197.77 C 87.15 188.17 90.37 178.36 87.41 168.86 C 87.17 171.13 87.02 173.42 86.64 175.68 C 86.25 175.70 85.47 175.75 85.07 175.78 C 86.15 162.80 85.92 149.67 88.58 136.85 C 89.55 139.92 90.14 143.09 90.74 146.25 C 91.25 142.29 91.20 138.18 92.87 134.47 C 91.57 134.56 90.28 134.65 88.99 134.74 C 90.20 128.93 90.38 122.98 91.35 117.14 C 92.69 110.73 92.43 104.13 93.52 97.68 C 93.80 97.63 94.37 97.51 94.65 97.45 C 93.43 95.52 92.43 93.46 91.65 91.31 C 93.08 91.62 94.51 91.94 95.93 92.29 C 96.02 90.97 96.11 89.65 96.20 88.34 Z" />
</g>
<g id="#d79dacff">
<path fill="#d79dac" opacity="1.00" d=" M 54.39 96.90 C 55.22 94.21 55.99 91.50 56.70 88.77 C 57.85 90.40 58.72 92.35 60.36 93.56 C 62.52 94.48 64.89 94.67 67.18 95.03 C 67.91 95.13 69.35 95.31 70.08 95.41 C 66.75 96.34 63.43 97.35 60.01 97.93 C 58.10 97.86 56.25 97.32 54.39 96.90 Z" />
</g>
<g id="#843f48ff">
<path fill="#843f48" opacity="1.00" d=" M 111.96 105.99 C 110.51 100.96 110.13 95.55 111.78 90.52 C 112.02 92.80 112.23 95.09 112.37 97.39 L 112.42 98.30 C 112.75 101.22 112.87 104.17 112.22 107.06 L 111.96 105.99 Z" />
</g>
<g id="#cb907cff">
<path fill="#cb907c" opacity="1.00" d=" M 112.42 98.30 C 115.61 99.98 119.28 99.67 122.74 99.38 C 121.77 109.27 124.27 119.14 123.02 129.02 C 122.59 133.06 121.51 136.99 121.07 141.03 C 120.70 144.56 122.06 147.99 121.88 151.50 C 121.81 151.92 121.66 152.76 121.58 153.18 C 121.36 151.37 121.07 149.58 120.78 147.78 C 118.41 152.49 119.53 157.83 118.80 162.85 C 118.41 165.78 116.25 167.96 114.42 170.11 C 112.72 168.77 111.01 167.44 109.47 165.93 C 109.54 163.86 109.57 161.79 109.58 159.73 C 108.95 161.48 108.36 163.24 107.79 165.02 C 107.27 164.28 106.75 163.54 106.23 162.81 C 108.18 155.01 114.27 148.59 113.94 140.20 C 114.20 134.47 114.47 128.70 113.83 122.98 C 113.74 121.27 112.71 119.87 111.84 118.46 L 111.97 117.95 C 112.94 114.39 112.48 110.68 112.22 107.06 C 112.87 104.17 112.75 101.22 112.42 98.30 Z" />
</g>
<g id="#cf967fff">
<path fill="#cf967f" opacity="1.00" d=" M 59.86 101.78 C 62.23 100.33 64.85 99.35 67.56 98.72 C 66.98 103.95 66.10 109.46 68.08 114.52 C 63.87 119.82 63.68 126.78 63.47 133.22 C 63.39 137.68 64.21 142.07 64.95 146.45 L 65.03 147.41 C 64.87 148.17 64.72 148.94 64.57 149.70 C 66.38 151.90 68.47 154.30 67.91 157.39 C 67.50 159.04 67.03 160.69 66.58 162.34 C 65.72 162.42 64.86 162.51 64.01 162.59 C 64.66 164.35 65.33 166.10 66.01 167.85 C 64.69 167.93 63.36 168.01 62.04 168.10 C 58.83 162.20 60.09 155.36 58.97 148.98 C 58.30 138.08 56.63 127.07 58.29 116.17 C 59.44 111.46 60.03 106.63 59.86 101.78 Z" />
</g>
<g id="#fff3f1ff">
</g>
<g id="#ffedf1ff">
</g>
<g id="#c37b6dff">
<path fill="#c37b6d" opacity="1.00" d=" M 63.47 133.22 C 63.68 126.78 63.87 119.82 68.08 114.52 C 68.28 114.96 68.70 115.84 68.91 116.29 C 68.96 118.54 68.70 120.79 68.15 122.98 C 67.25 124.44 66.26 125.94 66.18 127.72 C 65.61 133.94 64.44 140.17 64.95 146.45 C 64.21 142.07 63.39 137.68 63.47 133.22 Z" />
</g>
<g id="#974d50ff">
<path fill="#974d50" opacity="1.00" d=" M 111.69 136.77 C 112.43 130.65 109.99 124.44 111.84 118.46 C 112.71 119.87 113.74 121.27 113.83 122.98 C 114.47 128.70 114.20 134.47 113.94 140.20 C 113.19 139.06 112.44 137.91 111.69 136.77 Z" />
</g>
<g id="#a1514dff">
<path fill="#a1514d" opacity="1.00" d=" M 66.18 127.72 C 66.26 125.94 67.25 124.44 68.15 122.98 C 68.15 124.39 68.17 125.80 68.19 127.22 C 67.87 134.03 67.35 140.94 65.03 147.41 L 64.95 146.45 C 64.44 140.17 65.61 133.94 66.18 127.72 Z" />
</g>
<g id="#cd788aff">
<path fill="#cd788a" opacity="1.00" d=" M 68.19 127.22 C 68.69 125.93 69.23 124.66 69.77 123.38 C 70.77 130.62 74.15 138.16 71.36 145.38 C 71.70 145.41 72.36 145.46 72.69 145.49 C 72.92 147.42 73.15 149.35 73.32 151.29 C 73.28 154.81 73.39 158.33 73.17 161.85 C 72.79 162.33 72.02 163.30 71.63 163.78 C 70.66 161.51 69.44 159.34 67.91 157.39 C 68.47 154.30 66.38 151.90 64.57 149.70 C 64.72 148.94 64.87 148.17 65.03 147.41 C 67.35 140.94 67.87 134.03 68.19 127.22 Z" />
</g>
<g id="#d57b8fff">
<path fill="#d57b8f" opacity="1.00" d=" M 75.04 135.67 C 77.43 139.99 78.90 144.71 80.60 149.32 C 80.75 156.60 80.81 163.89 81.53 171.14 C 82.27 179.08 81.58 187.03 81.54 194.98 C 80.90 195.61 80.25 196.23 79.60 196.86 C 79.31 196.71 78.73 196.43 78.44 196.29 L 77.94 196.00 C 77.40 195.64 76.31 194.92 75.77 194.56 C 76.74 194.29 77.71 194.03 78.69 193.77 C 77.31 192.70 75.31 191.94 75.03 190.00 C 73.69 184.22 74.19 178.21 74.03 172.33 C 73.72 172.58 73.10 173.10 72.79 173.35 C 72.66 172.35 72.52 171.35 72.44 170.35 C 72.62 167.51 73.00 164.69 73.17 161.85 C 73.39 158.33 73.28 154.81 73.32 151.29 C 73.75 148.69 74.27 146.11 74.70 143.51 C 75.43 143.11 76.16 142.71 76.89 142.31 C 76.18 142.10 74.76 141.68 74.05 141.47 C 74.36 139.53 74.69 137.60 75.04 135.67 Z" />
</g>
<g id="#b16270ff">
<path fill="#b16270" opacity="1.00" d=" M 107.71 149.24 C 108.37 144.90 109.50 140.60 111.69 136.77 C 112.44 137.91 113.19 139.06 113.94 140.20 C 114.27 148.59 108.18 155.01 106.23 162.81 C 106.75 163.54 107.27 164.28 107.79 165.02 C 107.35 166.38 106.89 167.73 106.43 169.09 C 106.83 169.27 107.64 169.64 108.04 169.82 C 108.51 168.52 109.02 167.24 109.47 165.93 C 111.01 167.44 112.72 168.77 114.42 170.11 C 116.25 167.96 118.41 165.78 118.80 162.85 C 119.53 157.83 118.41 152.49 120.78 147.78 C 121.07 149.58 121.36 151.37 121.58 153.18 C 121.47 153.75 121.24 154.87 121.13 155.44 C 119.97 159.93 120.23 164.66 119.12 169.15 C 117.57 171.64 115.01 173.31 113.16 175.58 C 109.60 174.24 105.93 171.93 104.99 167.98 C 103.59 161.57 107.21 155.55 107.71 149.24 Z" />
</g>
<g id="#cc7389ff">
<path fill="#cc7389" opacity="1.00" d=" M 106.46 140.64 C 107.36 143.41 107.72 146.33 107.71 149.24 C 107.21 155.55 103.59 161.57 104.99 167.98 C 105.93 171.93 109.60 174.24 113.16 175.58 C 115.01 173.31 117.57 171.64 119.12 169.15 C 120.23 164.66 119.97 159.93 121.13 155.44 C 123.00 160.47 121.87 165.84 121.79 171.05 C 121.69 173.91 121.51 177.16 119.14 179.16 C 117.94 180.28 116.14 181.42 114.49 180.54 C 110.85 178.72 107.73 176.05 104.15 174.11 C 103.83 175.10 103.53 176.09 103.24 177.09 C 102.27 172.39 100.38 167.84 100.38 162.97 C 100.33 158.91 100.20 154.86 99.87 150.81 C 99.12 147.56 100.91 144.81 103.24 142.76 C 103.73 145.97 102.55 149.04 101.36 151.96 C 102.78 152.17 104.21 152.38 105.64 152.60 C 105.77 148.60 105.91 144.60 106.46 140.64 Z" />
</g>
<g id="#b65e71ff">
<path fill="#b65e71" opacity="1.00" d=" M 98.71 150.90 L 99.87 150.81 C 100.20 154.86 100.33 158.91 100.38 162.97 C 100.38 167.84 102.27 172.39 103.24 177.09 C 102.79 183.32 102.36 189.58 100.70 195.63 C 100.31 195.40 99.51 194.94 99.11 194.72 C 98.20 180.13 98.74 165.50 98.71 150.90 Z" />
</g>
<g id="#dd899bff">
<path fill="#dd899b" opacity="1.00" d=" M 121.88 151.50 C 124.09 155.93 124.49 160.95 125.36 165.76 C 126.84 174.06 127.17 182.52 128.95 190.78 C 123.54 191.90 117.69 191.92 112.81 194.82 C 110.93 195.87 109.06 197.01 106.99 197.66 L 106.22 197.86 C 105.80 197.72 104.95 197.43 104.53 197.28 C 103.65 196.98 102.79 196.65 101.94 196.30 C 101.63 196.13 101.01 195.80 100.70 195.63 C 102.36 189.58 102.79 183.32 103.24 177.09 C 103.53 176.09 103.83 175.10 104.15 174.11 C 107.73 176.05 110.85 178.72 114.49 180.54 C 116.14 181.42 117.94 180.28 119.14 179.16 C 121.51 177.16 121.69 173.91 121.79 171.05 C 121.87 165.84 123.00 160.47 121.13 155.44 C 121.24 154.87 121.47 153.75 121.58 153.18 C 121.66 152.76 121.81 151.92 121.88 151.50 Z" />
</g>
<g id="#b66971ff">
<path fill="#b66971" opacity="1.00" d=" M 66.58 162.34 C 67.03 160.69 67.50 159.04 67.91 157.39 C 68.15 160.44 68.71 163.47 69.54 166.42 C 68.64 167.37 67.73 168.32 66.83 169.28 C 68.63 169.97 70.51 170.39 72.44 170.35 C 72.52 171.35 72.66 172.35 72.79 173.35 C 71.60 174.20 70.47 175.46 68.91 175.50 C 66.40 174.63 64.31 172.92 62.08 171.53 C 62.07 170.39 62.06 169.24 62.04 168.10 C 63.36 168.01 64.69 167.93 66.01 167.85 C 65.33 166.10 64.66 164.35 64.01 162.59 C 64.86 162.51 65.72 162.42 66.58 162.34 Z" />
</g>
<g id="#9f454cff">
<path fill="#9f454c" opacity="1.00" d=" M 67.91 157.39 C 69.44 159.34 70.66 161.51 71.63 163.78 C 72.02 163.30 72.79 162.33 73.17 161.85 C 73.00 164.69 72.62 167.51 72.44 170.35 C 70.51 170.39 68.63 169.97 66.83 169.28 C 67.73 168.32 68.64 167.37 69.54 166.42 C 68.71 163.47 68.15 160.44 67.91 157.39 Z" />
</g>
<g id="#e28fa0ff">
<path fill="#e28fa0" opacity="1.00" d=" M 62.08 171.53 C 64.31 172.92 66.40 174.63 68.91 175.50 C 70.47 175.46 71.60 174.20 72.79 173.35 C 73.10 173.10 73.72 172.58 74.03 172.33 C 74.19 178.21 73.69 184.22 75.03 190.00 C 75.31 191.94 77.31 192.70 78.69 193.77 C 77.71 194.03 76.74 194.29 75.77 194.56 C 76.31 194.92 77.40 195.64 77.94 196.00 C 76.39 195.98 74.84 195.93 73.29 195.86 C 73.16 195.19 72.91 193.85 72.78 193.18 C 68.60 192.68 64.41 192.21 60.22 191.76 C 61.04 185.03 60.35 178.13 62.08 171.53 Z" />
</g>
<g id="#854e44ff">
<path fill="#854e44" opacity="1.00" d=" M 79.60 196.86 C 80.25 196.23 80.90 195.61 81.54 194.98 C 82.15 196.26 82.85 197.49 83.61 198.70 C 86.39 198.79 89.16 198.74 91.94 198.81 C 91.43 205.01 93.60 211.15 92.12 217.32 C 90.26 214.81 89.13 211.90 87.87 209.07 C 86.72 206.42 83.73 205.29 82.22 202.92 C 81.18 200.97 80.53 198.85 79.60 196.86 Z" />
</g>
<g id="#935d4bff">
<path fill="#935d4b" opacity="1.00" d=" M 99.11 194.72 C 99.51 194.94 100.31 195.40 100.70 195.63 C 101.01 195.80 101.63 196.13 101.94 196.30 C 102.79 196.65 103.65 196.98 104.53 197.28 C 103.96 200.07 103.74 202.97 102.67 205.62 C 101.30 207.07 98.94 206.93 97.14 207.59 C 97.17 211.81 96.97 216.03 96.36 220.21 C 94.14 213.22 95.94 205.57 92.88 198.84 C 94.81 198.83 96.74 198.74 98.66 198.68 C 98.83 197.36 98.98 196.04 99.11 194.72 Z" />
</g>
<g id="#aa735bff">
<path fill="#aa735b" opacity="1.00" d=" M 78.44 196.29 C 78.73 196.43 79.31 196.71 79.60 196.86 C 80.53 198.85 81.18 200.97 82.22 202.92 C 83.73 205.29 86.72 206.42 87.87 209.07 C 89.13 211.90 90.26 214.81 92.12 217.32 C 92.01 224.34 90.19 231.94 94.26 238.27 C 93.60 239.12 92.92 239.95 92.24 240.78 C 90.86 240.67 89.49 240.54 88.12 240.39 C 87.75 240.35 87.03 240.26 86.67 240.22 C 86.17 238.40 85.66 236.60 85.12 234.80 L 85.31 234.27 C 87.28 229.81 87.41 224.67 85.96 220.05 C 84.10 214.38 82.13 208.68 78.78 203.70 C 78.27 201.26 78.41 198.76 78.44 196.29 Z" />
</g>
<g id="#b67e68ff">
<path fill="#b67e68" opacity="1.00" d=" M 104.53 197.28 C 104.95 197.43 105.80 197.72 106.22 197.86 C 106.54 203.70 105.36 209.44 104.00 215.08 C 102.76 220.48 102.83 226.04 102.61 231.54 C 102.54 234.47 102.39 237.86 104.87 239.93 C 105.21 240.22 105.88 240.81 106.22 241.10 C 105.49 241.19 104.02 241.38 103.29 241.48 C 100.64 239.78 97.92 238.15 94.80 237.51 C 98.02 232.27 96.92 225.98 96.36 220.21 C 96.97 216.03 97.17 211.81 97.14 207.59 C 98.94 206.93 101.30 207.07 102.67 205.62 C 103.74 202.97 103.96 200.07 104.53 197.28 Z" />
</g>
<g id="#ba9383ff">
<path fill="#ba9383" opacity="1.00" d=" M 106.22 197.86 L 106.99 197.66 C 107.94 202.05 108.66 206.55 108.13 211.05 C 107.29 220.72 103.20 230.10 104.87 239.93 C 102.39 237.86 102.54 234.47 102.61 231.54 C 102.83 226.04 102.76 220.48 104.00 215.08 C 105.36 209.44 106.54 203.70 106.22 197.86 Z" />
</g>
<g id="#fefbf5ff">
<path fill="#fefbf5" opacity="1.00" d=" M 91.94 198.81 L 92.88 198.84 C 95.94 205.57 94.14 213.22 96.36 220.21 C 96.92 225.98 98.02 232.27 94.80 237.51 L 94.26 238.27 C 90.19 231.94 92.01 224.34 92.12 217.32 C 93.60 211.15 91.43 205.01 91.94 198.81 Z" />
</g>
<g id="#bb897aff">
<path fill="#bb897a" opacity="1.00" d=" M 78.78 203.70 C 82.13 208.68 84.10 214.38 85.96 220.05 C 87.41 224.67 87.28 229.81 85.31 234.27 C 83.42 229.91 82.74 225.17 81.39 220.63 C 79.99 215.10 78.48 209.45 78.78 203.70 Z" />
</g>
<g id="#dcc4beff">
<path fill="#dcc4be" opacity="1.00" d=" M 80.64 244.10 C 82.73 241.31 84.05 238.08 85.12 234.80 C 85.66 236.60 86.17 238.40 86.67 240.22 C 87.03 240.26 87.75 240.35 88.12 240.39 C 88.98 242.79 86.58 244.62 85.73 246.66 C 85.32 247.60 84.94 248.54 84.58 249.51 C 83.37 247.63 82.00 245.86 80.64 244.10 Z" />
</g>
<g id="#d9b9c1ff">
<path fill="#d9b9c1" opacity="1.00" d=" M 94.26 238.27 L 94.80 237.51 C 97.92 238.15 100.64 239.78 103.29 241.48 C 102.31 242.16 101.35 242.88 100.40 243.60 C 100.85 243.84 101.76 244.31 102.21 244.55 C 101.67 244.86 100.58 245.47 100.03 245.78 C 100.57 245.84 101.66 245.96 102.21 246.02 C 101.92 246.24 101.35 246.68 101.07 246.90 C 100.75 247.13 100.13 247.59 99.82 247.82 C 99.33 248.42 98.86 249.03 98.41 249.66 C 97.95 247.59 96.81 245.86 95.24 244.47 C 94.70 245.59 94.17 246.71 93.66 247.85 C 91.88 249.71 89.91 251.39 87.89 252.97 C 84.89 254.63 81.40 254.16 78.12 254.15 C 77.83 253.66 77.25 252.69 76.95 252.20 C 79.69 252.61 82.46 253.06 85.22 252.68 C 90.66 249.83 94.25 244.73 97.89 239.99 C 96.02 240.31 94.14 240.66 92.24 240.78 C 92.92 239.95 93.60 239.12 94.26 238.27 Z" />
</g>
<g id="#d01c47ff">
<path fill="#d01c47" opacity="1.00" d=" M 103.29 241.48 C 104.02 241.38 105.49 241.19 106.22 241.10 C 106.73 244.65 107.28 248.37 106.07 251.85 C 104.32 250.41 102.36 249.27 100.26 248.43 C 100.46 248.05 100.86 247.29 101.07 246.90 C 101.35 246.68 101.92 246.24 102.21 246.02 C 101.66 245.96 100.57 245.84 100.03 245.78 C 100.58 245.47 101.67 244.86 102.21 244.55 C 101.76 244.31 100.85 243.84 100.40 243.60 C 101.35 242.88 102.31 242.16 103.29 241.48 Z" />
</g>
<g id="#d00733ff">
<path fill="#d00733" opacity="1.00" d=" M 75.45 249.67 C 77.23 247.86 78.95 245.99 80.64 244.10 C 82.00 245.86 83.37 247.63 84.58 249.51 C 84.94 248.54 85.32 247.60 85.73 246.66 C 86.14 246.76 86.98 246.94 87.40 247.04 C 86.66 248.91 85.92 250.79 85.22 252.68 C 82.46 253.06 79.69 252.61 76.95 252.20 C 76.45 251.35 75.95 250.51 75.45 249.67 Z" />
</g>
<g id="#be0527ff">
<path fill="#be0527" opacity="1.00" d=" M 95.24 244.47 C 96.81 245.86 97.95 247.59 98.41 249.66 C 98.86 249.03 99.33 248.42 99.82 247.82 C 100.13 247.59 100.75 247.13 101.07 246.90 C 100.86 247.29 100.46 248.05 100.26 248.43 C 102.36 249.27 104.32 250.41 106.07 251.85 C 102.82 254.12 98.94 255.11 95.01 254.33 C 92.64 252.99 93.74 250.04 93.66 247.85 C 94.17 246.71 94.70 245.59 95.24 244.47 Z" />
</g>
<g id="#e7e3e5ff">
<path fill="#e7e3e5" opacity="1.00" d=" M 75.08 249.03 L 75.45 249.67 C 75.95 250.51 76.45 251.35 76.95 252.20 C 77.25 252.69 77.83 253.66 78.12 254.15 C 81.40 254.16 84.89 254.63 87.89 252.97 C 88.10 253.41 88.51 254.28 88.72 254.72 C 87.14 255.86 85.56 257.02 83.99 258.18 C 81.41 257.54 78.86 256.83 76.32 256.08 C 75.72 253.77 75.30 251.41 75.08 249.03 Z" />
</g>
</svg>
