<?xml version="1.0" encoding="UTF-8" ?>
<!DOCTYPE svg PUBLIC "-//W3C//DTD SVG 1.1//EN" "http://www.w3.org/Graphics/SVG/1.1/DTD/svg11.dtd">
<svg width="200pt" height="200pt" viewBox="0 0 200 200" version="1.1" xmlns="http://www.w3.org/2000/svg">
<g id="#000000ff">
<path fill="#000000" opacity="1.00" d=" M 71.82 62.88 C 76.67 56.47 86.10 54.11 93.36 57.64 C 95.96 58.70 97.93 60.73 100.00 62.55 C 102.38 60.31 104.89 58.07 108.06 57.05 C 115.56 54.20 124.69 57.27 129.01 64.01 C 133.86 71.08 132.67 81.53 126.25 87.25 C 123.49 89.99 119.72 91.17 116.01 91.97 C 115.95 103.99 116.07 116.01 115.97 128.03 C 116.12 135.34 110.56 142.12 103.45 143.63 C 94.33 145.94 84.33 138.51 84.09 129.08 C 83.86 116.71 84.09 104.33 83.99 91.96 C 79.36 91.01 74.81 88.95 71.89 85.09 C 66.75 78.87 66.75 69.15 71.82 62.88 M 73.22 68.21 C 70.01 74.96 73.29 83.90 80.24 86.77 C 84.28 88.83 88.83 87.74 92.98 86.65 C 93.32 87.00 94.00 87.69 94.35 88.03 C 94.56 91.36 90.20 91.03 88.01 91.97 C 88.02 103.99 87.94 116.02 88.04 128.05 C 87.79 133.94 92.58 138.56 97.95 140.03 C 98.27 137.45 97.03 134.01 99.15 132.05 C 103.50 131.45 101.67 137.41 102.05 140.02 C 107.40 138.55 112.17 133.96 111.96 128.09 C 112.07 116.05 111.97 104.01 111.99 91.97 C 109.77 91.02 105.45 91.37 105.61 88.04 C 106.62 85.50 109.23 87.53 111.10 87.56 C 120.18 90.19 129.63 81.12 127.84 71.94 C 126.88 62.44 114.99 56.76 106.97 61.91 C 103.61 63.22 102.78 67.82 99.05 68.36 C 97.13 65.21 94.58 62.20 90.99 60.94 C 84.36 58.19 76.00 61.58 73.22 68.21 Z" />
</g>
</svg>
